<svg width="27" height="30" viewBox="0 0 27 30" fill="none" xmlns="http://www.w3.org/2000/svg">
<path d="M5 21.5H4V22.5V26.25C4 26.8467 4.23705 27.419 4.65901 27.841C5.08097 28.2629 5.65326 28.5 6.25 28.5H23.75C24.3467 28.5 24.919 28.263 25.341 27.841C25.763 27.419 26 26.8467 26 26.25V3.75C26 3.15326 25.7629 2.58097 25.341 2.15901C24.919 1.73705 24.3467 1.5 23.75 1.5H6.25C5.65326 1.5 5.08097 1.73705 4.65901 2.15901C4.23705 2.58097 4 3.15326 4 3.75V7.5V8.5H5H7.5H7.77422L6.87531 9.21913L0.625305 14.2191L-0.350781 15L0.625305 15.7809L6.87531 20.7809L7.77422 21.5H7.5H5ZM8.5 8.5V7.91937V7.5V6H21.5V24H8.5V22.5V22.0806V21.5V20V17.25H16.25H17.25V16.25V13.75V12.75H16.25H8.5V10V8.5Z" fill="#707070" stroke="white" stroke-width="2"/>
</svg>
