<svg width="293" height="251" viewBox="0 0 293 251" fill="none" xmlns="http://www.w3.org/2000/svg">
<path d="M114.776 222.239C114.776 222.239 96.8909 215.933 92.6049 198.985C88.3189 182.037 78.0338 200.446 73.7478 185.885C69.4618 171.323 58.3439 174.431 51.4749 160.877C51.4749 160.877 56.4119 171.626 58.3409 180.626C60.2699 189.626 62.8409 190.269 70.2339 195.09C77.6269 199.911 74.0959 205.054 84.8609 211.804C95.6269 218.554 114.776 222.239 114.776 222.239Z" fill="#1ED668" stroke="#0F9645" stroke-width="2" stroke-miterlimit="10" stroke-linecap="round" stroke-linejoin="round"/>
<path d="M237.965 83.5525C237.965 83.5525 239.499 65.3435 228.57 56.1905C217.641 47.0375 217.653 54.7515 206.076 39.9665C194.499 25.1805 171.379 28.6225 171.379 28.6225C171.379 28.6225 174.891 28.7165 183.891 40.9305C192.891 53.1445 198.194 44.7875 203.417 54.1095C208.641 63.4305 208.364 66.9665 221.038 72.1095C233.713 77.2515 237.965 83.5525 237.965 83.5525Z" fill="#1ED668" stroke="#0F9645" stroke-width="2" stroke-miterlimit="10" stroke-linecap="round" stroke-linejoin="round"/>
<path d="M88.1223 95.5632C88.1223 94.5005 88.388 93.7035 88.9193 93.1722C89.4507 92.6054 90.106 92.322 90.8853 92.322C91.6646 92.322 92.3376 92.57 92.9044 93.0659V122.077H97.6332C98.2354 122.077 98.6959 122.236 99.0147 122.555C99.3689 122.838 99.5461 123.21 99.5461 123.671C99.5461 124.131 99.3866 124.521 99.0678 124.84H92.9044V134.935C92.9044 135.998 92.6387 136.795 92.1073 137.326C91.576 137.893 90.9207 138.176 90.1414 138.176C89.3621 138.176 88.6891 137.928 88.1223 137.432V124.84H72.5542V127.815C72.5542 132.243 71.8812 135.555 70.5351 137.751C69.1891 139.947 67.046 141.046 64.1059 141.046C62.3348 141.046 60.9533 140.479 59.9615 139.345C58.9697 138.212 58.4738 136.6 58.4738 134.51C58.4738 131.18 59.377 128.471 61.1836 126.381C63.0256 124.291 65.2217 122.998 67.7722 122.502V100.239C67.7722 99.1763 68.0378 98.3793 68.5692 97.8479C69.1005 97.2812 69.7558 96.9978 70.5351 96.9978C71.3144 96.9978 71.9874 97.2457 72.5542 97.7417V122.13H88.1223V95.5632ZM60.9179 134.67C60.9179 136.016 61.2013 137.043 61.7681 137.751C62.3702 138.46 63.2027 138.814 64.2653 138.814C65.3634 138.814 66.2136 138.052 66.8158 136.529C67.4179 135.006 67.7367 132.243 67.7722 128.24V125.265C65.7531 125.725 64.1059 126.77 62.8307 128.4C61.5555 130.029 60.9179 132.119 60.9179 134.67ZM124.2 122.289C124.944 122.289 125.316 122.856 125.316 123.99C125.316 126.611 124.395 129.002 122.553 131.163C120.746 133.323 117.983 134.404 114.264 134.404C110.545 134.404 107.552 133.412 105.284 131.428C103.053 129.409 101.937 126.469 101.937 122.608C101.937 118.712 102.929 115.683 104.913 113.522C106.896 111.326 109.429 110.228 112.511 110.228C114.742 110.228 116.372 110.83 117.399 112.035C118.426 113.204 118.94 114.603 118.94 116.232C118.94 118.889 117.824 121.103 115.592 122.874C113.396 124.61 110.58 125.477 107.144 125.477C107.463 127.744 108.278 129.462 109.588 130.631C110.934 131.765 112.688 132.332 114.849 132.332C117.045 132.332 119.011 131.517 120.746 129.887C122.517 128.223 123.403 125.796 123.403 122.608C123.438 122.396 123.704 122.289 124.2 122.289ZM106.985 123.033V123.511C109.181 123.228 111.076 122.537 112.67 121.439C114.299 120.341 115.114 118.712 115.114 116.551C115.114 115.169 114.813 114.125 114.211 113.416C113.609 112.672 112.759 112.3 111.661 112.3C109.996 112.3 108.791 113.115 108.047 114.744C107.339 116.374 106.985 119.137 106.985 123.033ZM139.302 111.769C139.763 110.742 140.489 110.228 141.48 110.228C142.508 110.228 143.269 110.476 143.765 110.972V126.221C143.765 128.24 144.084 129.764 144.722 130.791C145.359 131.818 146.227 132.332 147.325 132.332C150.655 132.332 152.32 128.878 152.32 121.971C152.355 121.758 152.621 121.652 153.117 121.652C153.754 121.652 154.073 122.59 154.073 124.468C154.073 127.479 153.418 129.887 152.107 131.694C150.832 133.501 149.025 134.404 146.688 134.404C143.11 134.404 140.737 132.828 139.568 129.675C138.895 131.127 137.974 132.279 136.805 133.129C135.636 133.979 134.307 134.404 132.82 134.404C126.621 134.404 123.521 130.348 123.521 122.236C123.521 118.127 124.478 115.099 126.391 113.15C128.339 111.202 130.907 110.228 134.095 110.228C136.539 110.228 138.275 110.742 139.302 111.769ZM129.313 128.772C129.809 130.33 130.376 131.322 131.013 131.747C131.651 132.137 132.501 132.332 133.564 132.332C134.626 132.332 135.777 131.676 137.017 130.366C138.292 129.02 138.93 127.284 138.93 125.159V117.879C138.93 116.214 138.487 114.868 137.602 113.841C136.752 112.814 135.777 112.3 134.679 112.3C133.617 112.3 132.767 112.407 132.129 112.619C131.491 112.832 130.889 113.274 130.322 113.947C129.154 115.223 128.569 117.986 128.569 122.236C128.569 125.035 128.817 127.213 129.313 128.772ZM168.044 121.652C168.682 121.652 169.001 122.59 169.001 124.468C169.001 127.195 168.257 129.533 166.769 131.481C165.281 133.43 163.386 134.404 161.084 134.404C158.215 134.404 156.072 133.554 154.655 131.853C153.238 130.153 152.529 127.744 152.529 124.627V104.649C152.529 100.08 153.008 96.7321 153.964 94.6068C154.92 92.4814 156.603 91.4188 159.012 91.4188C162.518 91.4188 164.272 93.7921 164.272 98.5387C164.272 102.116 163.563 104.986 162.147 107.146C160.765 109.307 159.171 110.919 157.365 111.981V126.221C157.365 128.24 157.754 129.764 158.533 130.791C159.313 131.818 160.375 132.332 161.721 132.332C163.068 132.332 164.325 131.517 165.494 129.887C166.663 128.258 167.247 125.619 167.247 121.971C167.318 121.758 167.584 121.652 168.044 121.652ZM161.987 98.5918C161.987 95.1913 161.137 93.491 159.437 93.491C159.012 93.491 158.675 93.6327 158.427 93.916C158.215 94.1994 158.02 94.9079 157.843 96.0414C157.524 97.7771 157.365 102.347 157.365 109.75C160.446 107.518 161.987 103.799 161.987 98.5918ZM167.263 105.605C167.263 104.543 167.529 103.746 168.06 103.214C168.592 102.648 169.265 102.364 170.079 102.364C170.894 102.364 171.549 102.612 172.045 103.108V110.972H179.324C180.068 110.972 180.547 111.114 180.759 111.397C181.007 111.68 181.131 112.159 181.131 112.832H172.045V126.221C172.045 128.17 172.594 129.675 173.692 130.738C174.826 131.8 176.119 132.332 177.571 132.332C179.767 132.332 181.379 131.517 182.406 129.887C183.433 128.258 183.947 125.619 183.947 121.971C184.018 121.758 184.284 121.652 184.744 121.652C185.382 121.652 185.701 122.59 185.701 124.468C185.701 127.337 184.974 129.71 183.522 131.588C182.105 133.465 179.909 134.404 176.933 134.404C173.958 134.404 171.602 133.625 169.867 132.066C168.131 130.507 167.263 128.187 167.263 125.105V105.605ZM212.873 121.652C213.511 121.652 213.83 122.59 213.83 124.468C213.83 127.195 213.121 129.533 211.704 131.481C210.323 133.43 208.516 134.404 206.285 134.404C204.053 134.404 202.194 133.625 200.706 132.066C199.253 130.472 198.527 128.435 198.527 125.956V118.411C198.527 114.195 197.465 112.088 195.339 112.088C193.462 112.088 191.921 113.044 190.717 114.957C189.512 116.87 188.91 120.075 188.91 124.574V133.66C188.556 134.156 187.936 134.404 187.05 134.404C186.165 134.404 185.456 134.138 184.925 133.607C184.394 133.04 184.128 132.225 184.128 131.163V104.543C184.128 99.9379 184.571 96.6081 185.456 94.5536C186.342 92.4637 188.042 91.4188 190.557 91.4188C191.903 91.4188 192.948 91.9855 193.692 93.119C194.436 94.2526 194.808 95.8643 194.808 97.9542C194.808 101.744 192.842 105.605 188.91 109.537V114.213C190.398 111.556 192.753 110.228 195.977 110.228C198.279 110.228 200.104 110.954 201.45 112.407C202.831 113.859 203.522 115.949 203.522 118.676V126.221C203.522 128.24 203.841 129.764 204.478 130.791C205.116 131.818 206.055 132.332 207.294 132.332C208.534 132.332 209.632 131.499 210.589 129.834C211.58 128.134 212.076 125.513 212.076 121.971C212.112 121.758 212.377 121.652 212.873 121.652ZM188.91 106.987C191.319 103.87 192.523 100.841 192.523 97.9011C192.523 94.961 191.886 93.491 190.61 93.491C189.902 93.491 189.441 94.3057 189.229 95.9351C189.016 97.5646 188.91 101.248 188.91 106.987ZM212.147 113.469C212.147 112.407 212.412 111.61 212.944 111.078C213.475 110.511 214.148 110.228 214.963 110.228C215.777 110.228 216.433 110.476 216.929 110.972V126.221C216.929 130.437 217.991 132.544 220.117 132.544C222.029 132.544 223.588 131.535 224.792 129.516C226.032 127.496 226.652 124.096 226.652 119.314V113.469C226.652 112.407 226.918 111.61 227.449 111.078C227.98 110.511 228.653 110.228 229.468 110.228C230.283 110.228 230.938 110.476 231.434 110.972V137.964C231.859 137.928 232.532 137.911 233.453 137.911C234.374 137.911 234.835 138.3 234.835 139.08L234.516 139.877C233.17 139.877 232.142 139.894 231.434 139.93V142.586C231.434 146.235 230.602 149.104 228.937 151.194C227.307 153.319 225.111 154.382 222.348 154.382C220.719 154.382 219.266 153.886 217.991 152.894C216.751 151.938 216.132 150.415 216.132 148.325C216.132 145.633 217.088 143.49 219.001 141.896C220.914 140.302 223.464 139.186 226.652 138.548V130.259C225.164 133.022 222.773 134.404 219.479 134.404C217.212 134.404 215.423 133.678 214.112 132.225C212.802 130.773 212.147 128.683 212.147 125.956V113.469ZM218.841 148.484C218.841 149.724 219.178 150.663 219.851 151.3C220.524 151.973 221.339 152.31 222.295 152.31C223.251 152.31 224.031 152.026 224.633 151.46C225.979 150.255 226.652 146.625 226.652 140.567C221.445 141.736 218.841 144.375 218.841 148.484Z" fill="#295139"/>
<path d="M114.749 158.087H106.726V198.947C106.372 199.443 105.752 199.691 104.867 199.691C103.981 199.691 103.273 199.408 102.741 198.841C102.21 198.31 101.944 197.513 101.944 196.45V149.799C101.944 145.3 102.422 141.988 103.379 139.863C104.335 137.737 106.036 136.675 108.48 136.675C111.986 136.675 113.74 139.048 113.74 143.794C113.74 149.25 111.898 153.394 108.214 156.228H112.943C113.687 156.228 114.165 156.369 114.377 156.653C114.625 156.936 114.749 157.414 114.749 158.087ZM111.455 143.848C111.455 140.447 110.605 138.747 108.905 138.747C108.444 138.747 108.09 138.906 107.842 139.225C107.594 139.508 107.399 140.27 107.258 141.51C106.974 143.635 106.797 148.169 106.726 155.112C109.879 152.809 111.455 149.055 111.455 143.848ZM127.569 155.484C130.722 155.484 133.29 156.529 135.274 158.619C137.257 160.709 138.249 163.56 138.249 167.173C138.249 170.751 137.31 173.726 135.433 176.1C133.591 178.473 131.111 179.66 127.994 179.66C124.877 179.66 122.273 178.597 120.184 176.472C118.129 174.311 117.102 171.335 117.102 167.545C117.102 163.72 118.058 160.762 119.971 158.672C121.919 156.547 124.452 155.484 127.569 155.484ZM127.622 157.556C126.666 157.556 125.833 157.804 125.125 158.3C124.452 158.76 124.115 159.433 124.115 160.319C124.115 162.586 125.001 164.765 126.772 166.854C128.543 168.909 130.651 170.273 133.095 170.946C133.166 169.6 133.201 168.448 133.201 167.492C133.201 163.808 132.812 161.24 132.032 159.788C131.253 158.3 129.783 157.556 127.622 157.556ZM122.15 167.492C122.15 171.105 122.592 173.691 123.478 175.25C124.399 176.808 125.887 177.587 127.941 177.587C129.358 177.587 130.438 177.233 131.182 176.525C131.962 175.781 132.493 174.594 132.776 172.965C130.474 172.469 128.348 171.424 126.4 169.83C124.487 168.236 123.088 166.465 122.203 164.517C122.167 165.119 122.15 166.111 122.15 167.492ZM152.631 155.484C155.784 155.484 158.352 156.529 160.336 158.619C162.319 160.709 163.311 163.56 163.311 167.173C163.311 170.751 162.372 173.726 160.495 176.1C158.653 178.473 156.173 179.66 153.056 179.66C149.939 179.66 147.336 178.597 145.246 176.472C143.191 174.311 142.164 171.335 142.164 167.545C142.164 163.72 143.12 160.762 145.033 158.672C146.981 156.547 149.514 155.484 152.631 155.484ZM152.684 157.556C151.728 157.556 150.895 157.804 150.187 158.3C149.514 158.76 149.177 159.433 149.177 160.319C149.177 162.586 150.063 164.765 151.834 166.854C153.605 168.909 155.713 170.273 158.157 170.946C158.228 169.6 158.263 168.448 158.263 167.492C158.263 163.808 157.874 161.24 157.094 159.788C156.315 158.3 154.845 157.556 152.684 157.556ZM147.212 167.492C147.212 171.105 147.654 173.691 148.54 175.25C149.461 176.808 150.949 177.587 153.003 177.587C154.42 177.587 155.5 177.233 156.244 176.525C157.024 175.781 157.555 174.594 157.838 172.965C155.536 172.469 153.41 171.424 151.462 169.83C149.549 168.236 148.15 166.465 147.265 164.517C147.229 165.119 147.212 166.111 147.212 167.492ZM166.96 167.173C166.96 163.1 167.917 160.142 169.829 158.3C171.778 156.423 174.346 155.484 177.534 155.484C179.588 155.484 181.218 155.891 182.422 156.706V149.48C182.422 145.017 182.865 141.775 183.75 139.756C184.671 137.702 186.372 136.675 188.851 136.675C190.197 136.675 191.242 137.241 191.986 138.375C192.73 139.508 193.102 141.12 193.102 143.21C193.102 147 191.136 150.861 187.204 154.793V171.477C187.204 173.496 187.541 175.019 188.214 176.047C188.922 177.074 189.843 177.587 190.977 177.587C192.11 177.587 193.191 176.897 194.218 175.515C195.28 174.098 195.812 171.867 195.812 168.82C195.812 168.147 195.794 167.616 195.759 167.226C195.794 167.014 196.06 166.908 196.556 166.908C197.193 166.908 197.512 167.846 197.512 169.724C197.512 172.664 196.839 175.055 195.493 176.897C194.182 178.739 192.482 179.66 190.392 179.66C186.602 179.66 184.122 177.995 182.953 174.665C182.28 176.153 181.359 177.357 180.19 178.278C179.022 179.164 177.711 179.607 176.259 179.607C170.06 179.607 166.96 175.462 166.96 167.173ZM176.79 177.534C178.101 177.534 179.34 176.826 180.509 175.409C181.714 173.957 182.316 172.115 182.316 169.883V163.082C182.316 161.346 181.891 160 181.041 159.044C180.226 158.052 179.252 157.556 178.118 157.556C177.02 157.556 176.152 157.645 175.515 157.822C174.913 157.999 174.31 158.388 173.708 158.991C172.575 160.16 172.008 162.887 172.008 167.173C172.008 171.495 172.504 174.329 173.496 175.675C174.381 176.914 175.479 177.534 176.79 177.534ZM188.904 138.747C188.161 138.747 187.682 139.579 187.47 141.244C187.293 142.873 187.204 146.54 187.204 152.243C189.613 149.126 190.817 146.097 190.817 143.157C190.817 140.217 190.18 138.747 188.904 138.747Z" fill="#295139"/>
<path d="M144.691 10.6735C138.463 -2.44054 118.216 2.29647 109.025 10.5405C100.253 18.6945 100.172 26.9295 113.46 28.8355C125.645 30.5925 145.353 25.9615 144.691 10.6735ZM147.956 10.0305C148.537 27.4645 127.125 32.9805 113.153 30.8305C104.016 29.4395 97.6028 24.3245 102.854 14.8455C110.741 0.95246 139.881 -7.84953 147.956 10.0305Z" fill="#0F9645"/>
<path d="M38.5078 86.8125C34.3758 98.6225 32.1288 111.318 32.1288 124.538C32.1288 187.602 83.2528 238.726 146.317 238.726" stroke="#0F9645" stroke-width="3.3277" stroke-miterlimit="10" stroke-linecap="round" stroke-linejoin="round"/>
<path d="M38.0348 88.2015C38.0348 88.2015 32.3588 46.0655 71.6008 38.1855C71.6008 38.1855 71.6008 77.1895 38.0348 88.2015Z" fill="#1ED668"/>
<path d="M37.1508 89.6105C36.5918 89.2315 36.3348 88.5245 36.3298 87.8505C36.3098 87.5255 36.2378 86.5685 36.2288 86.2245C35.3288 62.4365 46.8198 41.9595 71.5048 37.7065C71.8028 37.6375 72.1018 37.8765 72.0888 38.1855C72.0268 43.6235 71.1908 48.9755 69.8168 54.2195C66.1648 68.7795 56.5088 82.2775 42.4058 88.2425C40.8318 89.0465 38.8398 89.4645 37.1508 89.6105ZM38.9188 86.7915C39.5268 86.2155 39.7798 85.7945 40.4998 85.5945C40.6278 85.5305 41.0338 85.3775 41.1698 85.3125C60.0898 78.1125 70.1068 57.5325 71.1128 38.1855L71.6968 38.6635C47.7288 43.6785 37.5308 63.8955 39.5668 87.0225C39.5938 87.1875 39.6368 87.6975 39.6678 87.8755C39.6558 87.4895 39.2868 86.9595 38.9188 86.7915Z" fill="#0F9645"/>
<path d="M42.3878 171.559C42.3878 171.559 -0.00217714 168.292 0.503823 128.269C0.503823 128.269 36.2378 129.837 42.3878 171.559Z" fill="#1ED668"/>
<path d="M43.6048 172.694C43.1138 173.18 42.3658 173.292 41.6888 173.152C41.3678 173.1 40.4148 172.975 40.0778 172.91C16.6368 168.805 -0.974174 153.284 0.0418262 128.263C0.0388262 128.001 0.261828 127.786 0.524828 127.807C6.06683 128.173 11.4198 129.697 16.4528 131.993C27.9338 137.129 36.7378 147.395 40.8758 159.209C42.3588 163.51 43.9488 168.097 43.6048 172.694ZM41.1718 170.424C39.8328 168.47 39.9348 166.163 39.2638 163.973C38.7998 162.114 38.1628 160.084 37.5298 158.264C33.7108 147.61 26.0128 138.414 15.7898 133.367C11.0328 130.972 5.78383 129.275 0.484827 128.731C0.480827 128.732 0.96583 128.275 0.96583 128.275C0.86383 152.768 18.5058 166.974 41.5568 169.814C41.7028 169.819 42.2468 169.89 42.4118 169.893C42.0218 169.821 41.4108 170.087 41.1718 170.424Z" fill="#0F9645"/>
<path d="M41.2138 172.738L10.6568 139.939L43.5628 170.381C45.1908 171.953 42.7998 174.366 41.2138 172.738Z" fill="#0F9645"/>
<path d="M36.9858 86.1385C40.2298 79.6185 43.7138 73.2965 47.5598 67.1275C51.4248 61.0315 55.4998 54.9125 60.8408 49.9995C60.9538 49.8965 61.1348 50.0695 61.0168 50.1855C58.5128 52.7635 56.4498 55.7175 54.4998 58.7185C50.6288 64.7535 47.3748 71.1705 44.3368 77.6595C42.8288 80.9115 41.3628 84.2115 40.0228 87.5035C39.1118 89.5725 36.0398 88.2175 36.9858 86.1385Z" fill="#0F9645"/>
<path d="M171.589 227.369C165.516 229.389 159.186 230.124 152.902 230.617C151.494 230.731 149.967 230.716 148.655 231.179C141.385 233.816 143.205 243.772 149.76 246.307C152.277 247.44 155.298 247.674 158.308 247.692C164.41 247.6 170.573 246.486 176.509 245.005C176.947 244.884 177.401 245.148 177.511 245.589C177.613 245.997 177.384 246.411 176.996 246.55C171.026 248.674 164.831 250.133 158.383 250.489C151.676 251.073 143.656 248.784 141.357 241.643C139.384 236.518 142.158 229.743 147.727 228.271C149.353 227.755 151.099 227.743 152.757 227.723C155.852 227.643 158.946 227.485 162.018 227.173C165.101 226.907 168.168 226.486 171.174 225.846C172.127 225.641 172.523 227.06 171.589 227.369Z" fill="#0F9645"/>
<path d="M173.892 236.244C164.944 238.727 155.661 240.117 146.317 240.389C145.398 240.417 144.631 239.694 144.603 238.775C144.571 237.821 145.363 237.029 146.317 237.061C155.398 237.334 164.543 236.523 173.489 234.602C174.529 234.379 174.931 235.955 173.892 236.244Z" fill="#0F9645"/>
<path d="M254.132 162.265C258.265 150.455 260.511 137.759 260.511 124.539C260.511 61.4755 209.387 10.3515 146.323 10.3515" stroke="#0F9645" stroke-width="3.3277" stroke-miterlimit="10" stroke-linecap="round" stroke-linejoin="round"/>
<path d="M254.605 160.877C254.605 160.877 260.281 203.013 221.039 210.893C221.039 210.893 221.039 171.888 254.605 160.877Z" fill="#1ED668"/>
<path d="M255.489 159.467C256.048 159.846 256.305 160.553 256.31 161.227C256.33 161.553 256.402 162.509 256.411 162.853C257.311 186.641 245.82 207.118 221.135 211.371C220.837 211.44 220.538 211.201 220.551 210.892C220.613 205.454 221.449 200.102 222.823 194.858C226.475 180.298 236.131 166.8 250.234 160.835C251.808 160.031 253.8 159.614 255.489 159.467ZM253.721 162.286C253.113 162.862 252.86 163.283 252.14 163.483C252.012 163.547 251.606 163.7 251.47 163.765C232.55 170.965 222.533 191.545 221.527 210.892C221.528 210.894 220.943 210.414 220.943 210.414C244.911 205.399 255.109 185.182 253.073 162.055C253.046 161.89 253.003 161.38 252.972 161.202C252.984 161.588 253.353 162.118 253.721 162.286Z" fill="#0F9645"/>
<path d="M250.252 77.5185C250.252 77.5185 292.642 80.7855 292.136 120.808C292.136 120.808 256.402 119.24 250.252 77.5185Z" fill="#1ED668"/>
<path d="M249.035 76.3835C249.526 75.8975 250.274 75.7855 250.951 75.9255C251.272 75.9775 252.225 76.1025 252.562 76.1675C276.003 80.2725 293.614 95.7935 292.598 120.814C292.601 121.076 292.378 121.291 292.115 121.27C286.573 120.904 281.22 119.38 276.187 117.084C264.706 111.948 255.902 101.682 251.764 89.8685C250.281 85.5675 248.691 80.9815 249.035 76.3835ZM251.468 78.6535C252.807 80.6075 252.705 82.9145 253.376 85.1045C253.84 86.9635 254.477 88.9935 255.109 90.8135C258.928 101.467 266.626 110.663 276.849 115.709C281.606 118.104 286.855 119.801 292.154 120.345C292.158 120.344 291.672 120.801 291.672 120.801C291.774 96.3085 274.132 82.1025 251.081 79.2625C250.935 79.2575 250.391 79.1865 250.226 79.1835C250.618 79.2565 251.229 78.9905 251.468 78.6535Z" fill="#0F9645"/>
<path d="M251.426 76.3395L281.983 109.138L249.077 78.6965C247.449 77.1255 249.84 74.7115 251.426 76.3395Z" fill="#0F9645"/>
<path d="M255.654 162.939C252.41 169.459 248.926 175.781 245.08 181.95C241.215 188.046 237.14 194.166 231.799 199.079C231.686 199.182 231.505 199.008 231.623 198.892C234.127 196.314 236.19 193.36 238.14 190.359C242.011 184.324 245.265 177.907 248.303 171.418C249.812 168.165 251.277 164.867 252.617 161.575C253.528 159.507 256.6 160.861 255.654 162.939Z" fill="#0F9645"/>
<path d="M242.832 149.529C252.564 111.703 237.514 69.3185 206.055 46.1005C195.736 38.2305 183.811 32.4925 171.248 29.1345C170.965 29.0605 170.794 28.7715 170.868 28.4885C170.941 28.2075 171.23 28.0395 171.51 28.1075C184.254 31.3165 196.427 36.9515 207.028 44.7965C239.588 68.1175 255.492 111.377 246.068 150.303C245.532 152.405 242.349 151.717 242.832 149.529Z" fill="#0F9645"/>
<path d="M49.9938 102.431C44.6248 123.15 46.3328 145.641 54.4868 165.4C55.1168 166.791 56.7238 170.345 57.3318 171.689C58.0408 172.983 59.9218 176.411 60.6518 177.745C62.2288 180.314 63.9368 182.999 65.6948 185.453C77.4198 201.706 94.0618 214.25 112.896 221.166C113.112 221.243 113.225 221.481 113.148 221.697C113.072 221.911 112.834 222.022 112.619 221.95C99.4278 217.295 87.0308 210.016 76.7738 200.437C74.0568 198.072 71.0388 194.714 68.5938 192.049C67.6218 190.89 65.1968 187.78 64.2068 186.545C62.3728 184.073 60.5868 181.369 58.9358 178.777C58.1538 177.407 56.1968 173.973 55.4438 172.653C54.8058 171.307 53.0878 167.67 52.4288 166.276C51.2178 163.389 50.0958 160.447 49.0788 157.486C48.6568 156.038 47.4978 152.122 47.0868 150.709C46.5478 148.041 45.5928 144.172 45.2378 141.473C43.2248 128.267 43.6008 114.636 46.7628 101.632C47.3238 99.5335 50.4818 100.23 49.9938 102.431Z" fill="#0F9645"/>
<path d="M125.748 181.078H190.681L190.427 182.165C190.137 183.406 189.03 184.283 187.756 184.283H125.748C124.863 184.283 124.146 183.566 124.146 182.681C124.145 181.795 124.863 181.078 125.748 181.078Z" fill="#295139"/>
<path d="M106.446 84.7065H139.574L139.32 85.7935C139.03 87.0335 137.923 87.9115 136.649 87.9115H106.446C105.561 87.9115 104.844 87.1945 104.844 86.3095C104.844 85.4235 105.561 84.7065 106.446 84.7065Z" fill="#295139"/>
<path d="M109.875 68.6033V70.9649H113.684V73.1603H109.875V75.7215H114.183V78H107.031V66.3248H114.183V68.6033H109.875ZM123.297 75.9377H118.939L118.241 78H115.264L119.488 66.3248H122.781L127.006 78H123.995L123.297 75.9377ZM122.565 73.7424L121.118 69.4681L119.688 73.7424H122.565ZM136.69 66.3248V68.6033H133.597V78H130.753V68.6033H127.659V66.3248H136.69Z" fill="#295139"/>
</svg>
