<svg width="24" height="24" viewBox="0 0 24 24" fill="none" xmlns="http://www.w3.org/2000/svg">
<g clip-path="url(#clip0_526_15)">
<path d="M4.49993 7.00013C4.0401 7.00142 3.58459 6.9115 3.15975 6.73555C2.73492 6.55961 2.3492 6.30115 2.02493 5.97513L0.499927 4.62013C0.202885 4.35491 0.023365 3.98256 0.000860655 3.58498C-0.0102824 3.38812 0.0174582 3.19099 0.0824985 3.00485C0.147539 2.81872 0.248605 2.64721 0.379927 2.50013C0.511249 2.35305 0.670255 2.23327 0.847866 2.14764C1.02548 2.06201 1.21821 2.01221 1.41507 2.00106C1.81265 1.97856 2.20288 2.11491 2.49993 2.38013L4.08393 3.79413C4.1355 3.85508 4.19903 3.90481 4.27058 3.94024C4.34213 3.97567 4.42019 3.99605 4.49993 4.00013C4.63228 4.0001 4.75922 3.9476 4.85293 3.85413L8.46593 0.414129C8.75603 0.151625 9.1372 0.0128524 9.52817 0.0274065C9.91913 0.0419606 10.2889 0.20869 10.5587 0.492035C10.8285 0.775381 10.9769 1.15292 10.9723 1.54412C10.9676 1.93533 10.8103 2.30925 10.5339 2.58613L6.94793 6.00013C6.62573 6.31965 6.24365 6.57246 5.82357 6.74406C5.4035 6.91566 4.95369 7.00268 4.49993 7.00013V7.00013ZM23.9999 3.50013C23.9999 3.1023 23.8419 2.72077 23.5606 2.43947C23.2793 2.15816 22.8978 2.00013 22.4999 2.00013H14.4999C14.1021 2.00013 13.7206 2.15816 13.4393 2.43947C13.158 2.72077 12.9999 3.1023 12.9999 3.50013C12.9999 3.89795 13.158 4.27948 13.4393 4.56079C13.7206 4.84209 14.1021 5.00013 14.4999 5.00013H22.4999C22.8978 5.00013 23.2793 4.84209 23.5606 4.56079C23.8419 4.27948 23.9999 3.89795 23.9999 3.50013ZM6.94793 14.0001L10.5339 10.5861C10.8103 10.3092 10.9676 9.93533 10.9723 9.54412C10.9769 9.15292 10.8285 8.77538 10.5587 8.49203C10.2889 8.20869 9.91913 8.04196 9.52817 8.02741C9.1372 8.01285 8.75603 8.15162 8.46593 8.41413L4.85293 11.8541C4.75916 11.9479 4.63201 12.0005 4.49943 12.0005C4.36685 12.0005 4.23969 11.9479 4.14593 11.8541L2.56093 10.2681C2.27953 9.98673 1.89788 9.82865 1.49993 9.82865C1.10197 9.82865 0.720322 9.98673 0.438927 10.2681C0.157532 10.5495 -0.000553558 10.9312 -0.000553558 11.3291C-0.000553558 11.7271 0.157532 12.1087 0.438927 12.3901L2.02493 13.9751C2.67689 14.6267 3.55956 14.9948 4.48129 14.9995C5.40302 15.0042 6.28938 14.645 6.94793 14.0001V14.0001ZM23.9999 11.5001C23.9999 11.1023 23.8419 10.7208 23.5606 10.4395C23.2793 10.1582 22.8978 10.0001 22.4999 10.0001H14.4999C14.1021 10.0001 13.7206 10.1582 13.4393 10.4395C13.158 10.7208 12.9999 11.1023 12.9999 11.5001C12.9999 11.898 13.158 12.2795 13.4393 12.5608C13.7206 12.8421 14.1021 13.0001 14.4999 13.0001H22.4999C22.8978 13.0001 23.2793 12.8421 23.5606 12.5608C23.8419 12.2795 23.9999 11.898 23.9999 11.5001ZM6.94793 22.0001L10.5339 18.5861C10.8103 18.3093 10.9676 17.9353 10.9723 17.5441C10.9769 17.1529 10.8285 16.7754 10.5587 16.492C10.2889 16.2087 9.91913 16.042 9.52817 16.0274C9.1372 16.0129 8.75603 16.1516 8.46593 16.4141L4.85293 19.8541C4.75922 19.9476 4.63228 20.0001 4.49993 20.0001C4.42019 19.9961 4.34213 19.9757 4.27058 19.9402C4.19903 19.9048 4.1355 19.8551 4.08393 19.7941L2.49993 18.3801C2.20288 18.1149 1.81265 17.9786 1.41507 18.0011C1.0175 18.0236 0.645144 18.2031 0.379927 18.5001C0.114711 18.7972 -0.0216437 19.1874 0.000860655 19.585C0.023365 19.9826 0.202885 20.3549 0.499927 20.6201L2.02293 21.9751C2.67497 22.6273 3.55807 22.9958 4.48029 23.0005C5.4025 23.0051 6.28929 22.6457 6.94793 22.0001ZM23.9999 19.5001C23.9999 19.1023 23.8419 18.7208 23.5606 18.4395C23.2793 18.1582 22.8978 18.0001 22.4999 18.0001H14.4999C14.1021 18.0001 13.7206 18.1582 13.4393 18.4395C13.158 18.7208 12.9999 19.1023 12.9999 19.5001C12.9999 19.898 13.158 20.2795 13.4393 20.5608C13.7206 20.8421 14.1021 21.0001 14.4999 21.0001H22.4999C22.8978 21.0001 23.2793 20.8421 23.5606 20.5608C23.8419 20.2795 23.9999 19.898 23.9999 19.5001Z" fill="white"/>
</g>
<defs>
<clipPath id="clip0_526_15">
<rect width="24" height="24" fill="white"/>
</clipPath>
</defs>
</svg>
