<svg width="23" height="22" viewBox="0 0 23 22" fill="none" xmlns="http://www.w3.org/2000/svg">
<g clip-path="url(#clip0_99_3919)">
<path d="M19.6627 6.9043C19.6429 6.8707 19.623 6.83762 19.6029 6.80505C18.6778 5.30694 16.8867 4.54261 15.1456 4.90295C14.7468 4.98549 14.1537 5.15397 13.5933 5.48788C13.0272 5.82506 12.631 6.24924 12.4154 6.74859C12.058 7.57634 12.2151 8.56187 12.8822 9.67807C13.7897 11.1968 13.5713 12.7592 13.3784 14.1377C13.2616 14.9722 13.1607 15.6929 13.316 16.307C13.4941 17.0108 14.0021 17.4653 14.8696 17.6964C15.0233 17.7376 15.1817 17.7585 15.3407 17.7586C16.1638 17.7586 17.0108 17.199 17.8168 16.1149C19.6413 13.6607 20.8514 8.92852 19.6627 6.9043Z" fill="white"/>
<path d="M13.3249 4.764C13.3998 4.764 13.4745 4.75695 13.548 4.74294C13.9405 4.66827 14.2711 4.40779 14.4789 4.00955C14.6782 3.62761 14.7403 3.16122 14.6541 2.69639C14.4726 1.7185 13.6812 1.04561 12.89 1.19605C12.4975 1.27073 12.167 1.5312 11.9592 1.92944C11.7599 2.31139 11.6977 2.77777 11.784 3.2426C11.9482 4.12836 12.613 4.764 13.3249 4.764Z" fill="white"/>
<path d="M16.0485 4.28785C16.0736 4.28968 16.0985 4.2906 16.1233 4.2906C16.7551 4.2906 17.2992 3.70193 17.3537 2.93983C17.3842 2.57721 17.2899 2.21508 17.087 1.91481C16.8792 1.61683 16.5833 1.43937 16.2542 1.41522C15.5913 1.36628 15.0057 1.97128 14.949 2.76323C14.9185 3.12583 15.0128 3.48794 15.2156 3.78821C15.4236 4.08633 15.7194 4.26366 16.0485 4.28785Z" fill="white"/>
<path d="M18.3843 4.49938C18.4028 4.50076 18.4213 4.50143 18.4397 4.5014C18.9028 4.5014 19.3013 4.07511 19.3408 3.52288C19.3625 3.26154 19.2944 3.00063 19.1479 2.78437C19.0793 2.68029 18.9884 2.59322 18.882 2.52963C18.7756 2.46604 18.6564 2.42757 18.5333 2.41708C18.0472 2.3815 17.6178 2.81939 17.5767 3.39354C17.555 3.65497 17.6231 3.91597 17.7696 4.1323C17.8383 4.23634 17.9292 4.32337 18.0356 4.38692C18.142 4.45047 18.2612 4.48891 18.3843 4.49938Z" fill="white"/>
<path d="M19.2219 5.1245C19.2571 5.23012 19.3154 5.32635 19.3924 5.40601C19.4694 5.48567 19.5631 5.54671 19.6665 5.58461C19.7394 5.61035 19.816 5.62343 19.8931 5.62328C20.2355 5.62328 20.5733 5.36916 20.709 4.97621C20.7867 4.75885 20.7879 4.52091 20.7123 4.30276C20.6771 4.19714 20.6188 4.10091 20.5418 4.02125C20.4649 3.94158 20.3712 3.88052 20.2677 3.84261C19.8586 3.69781 19.391 3.9707 19.2252 4.45088C19.1474 4.6683 19.1463 4.9063 19.2219 5.1245Z" fill="white"/>
<path d="M21.4389 5.62843C21.1065 5.34699 20.5739 5.43542 20.2516 5.82562C20.1032 6.00125 20.0193 6.22346 20.0141 6.4546C20.0103 6.56603 20.0313 6.67689 20.0757 6.77894C20.12 6.88099 20.1865 6.97159 20.2702 7.044C20.4002 7.1525 20.5639 7.21081 20.7324 7.20857C20.8719 7.2052 21.009 7.1711 21.1343 7.10863C21.2595 7.04616 21.3698 6.95682 21.4575 6.84682C21.6059 6.67117 21.6898 6.44892 21.695 6.21775C21.6988 6.10633 21.6777 5.99548 21.6334 5.89345C21.5891 5.79141 21.5226 5.70083 21.4389 5.62843Z" fill="white"/>
<path d="M6.86519 8.84478C5.09471 8.99904 3.59101 10.2464 3.12341 11.9486C3.11323 11.9856 3.10334 12.0231 3.09372 12.061C2.54169 14.2597 4.54433 17.901 6.70375 19.688C7.61157 20.4391 8.49369 20.8252 9.27107 20.8252C9.59089 20.8278 9.90707 20.7563 10.1955 20.6163C11.0151 20.2147 11.4134 19.7113 11.4488 19.0319C11.4797 18.4418 11.2307 17.8022 10.9424 17.0617C10.4693 15.8468 9.9331 14.4698 10.3729 12.7742C10.7 11.5125 10.5747 10.5223 10.0004 9.83113C9.65382 9.41411 9.155 9.12111 8.51773 8.96024C7.88665 8.80069 7.27076 8.80937 6.86519 8.84478ZM3.92229 13.4621C3.91347 13.41 3.90542 13.3582 3.89816 13.3067C3.89021 13.2503 3.9047 13.193 3.93844 13.1474C3.97218 13.1019 4.02241 13.0717 4.07808 13.0637C4.13375 13.0556 4.1903 13.0703 4.23529 13.1045C4.28028 13.1387 4.31002 13.1896 4.31797 13.246C4.32467 13.2935 4.33211 13.3413 4.34028 13.3894C4.34499 13.4172 4.34425 13.4457 4.3381 13.4732C4.33195 13.5007 4.32051 13.5268 4.30444 13.5498C4.28836 13.5728 4.26797 13.5924 4.24442 13.6075C4.22087 13.6225 4.19462 13.6327 4.16718 13.6375C4.13973 13.6423 4.11163 13.6415 4.08448 13.6353C4.05732 13.6291 4.03164 13.6175 4.0089 13.6012C3.98617 13.5849 3.96682 13.5642 3.95196 13.5404C3.93711 13.5165 3.92704 13.4899 3.92233 13.4621H3.92229ZM5.50062 16.7549C5.47688 16.7697 5.45051 16.7796 5.42301 16.784C5.39551 16.7884 5.36741 16.7873 5.34034 16.7807C5.31326 16.7741 5.28773 16.7622 5.2652 16.7456C5.24268 16.729 5.22359 16.7081 5.20904 16.684C4.71747 15.8715 4.33616 15.0294 4.1065 14.2489C4.09853 14.2218 4.09591 14.1935 4.09876 14.1654C4.10162 14.1373 4.1099 14.1101 4.12314 14.0853C4.14988 14.0352 4.19517 13.9979 4.24906 13.9816C4.30295 13.9653 4.36102 13.9713 4.41049 13.9984C4.45997 14.0255 4.49679 14.0714 4.51287 14.126C4.73232 14.8714 5.09806 15.6783 5.57072 16.4595C5.58527 16.4836 5.595 16.5103 5.59935 16.5382C5.60371 16.566 5.6026 16.5945 5.59609 16.622C5.58958 16.6494 5.5778 16.6753 5.56142 16.6981C5.54504 16.7209 5.52438 16.7403 5.50062 16.755V16.7549Z" fill="white"/>
<path d="M8.22922 8.23896C8.27029 8.23897 8.31134 8.23686 8.3522 8.23264C8.74945 8.19157 9.10044 7.96009 9.34046 7.58094C9.57063 7.21729 9.67122 6.75783 9.62385 6.28728C9.52403 5.29749 8.79156 4.55938 7.99018 4.64235C7.59288 4.68343 7.24189 4.91486 7.00188 5.29406C6.7717 5.65774 6.67111 6.11717 6.71848 6.58772C6.813 7.52671 7.47737 8.239 8.22922 8.23896Z" fill="white"/>
<path d="M5.46095 8.5812C5.58585 8.58139 5.70975 8.55868 5.82666 8.51417C6.13554 8.39648 6.36945 8.14142 6.48547 7.79586C6.59597 7.44962 6.58492 7.07531 6.45418 6.73638C6.17803 5.99324 5.4473 5.58147 4.82517 5.81848C4.51629 5.93613 4.28238 6.19124 4.16635 6.53675C4.05584 6.883 4.06688 7.25733 4.19761 7.59627C4.42087 8.19702 4.94115 8.5812 5.46095 8.5812Z" fill="white"/>
<path d="M3.37512 9.43735C3.46772 9.43748 3.55958 9.42064 3.64626 9.38764C3.76137 9.34223 3.8649 9.27111 3.94915 9.17957C4.03339 9.08803 4.09619 8.97843 4.13287 8.85891C4.21275 8.60935 4.20501 8.33948 4.11094 8.09505C3.91079 7.55631 3.37661 7.25939 2.92028 7.43333C2.80516 7.47875 2.70163 7.54987 2.61738 7.64142C2.53312 7.73296 2.47032 7.84258 2.43363 7.96211C2.35377 8.21165 2.36152 8.4815 2.45556 8.72592C2.61695 9.16029 2.99538 9.43735 3.37512 9.43735Z" fill="white"/>
<path d="M2.30524 10.9288C2.45393 10.9302 2.59924 10.8839 2.72035 10.7965C2.80898 10.7304 2.88177 10.645 2.9333 10.5465C2.98483 10.448 3.01376 10.3389 3.01795 10.2275C3.02935 9.99659 2.9616 9.76878 2.82619 9.58268C2.53279 9.16988 2.00776 9.04256 1.65626 9.29875C1.56763 9.36481 1.49484 9.45028 1.44332 9.5488C1.39179 9.64731 1.36286 9.75633 1.35866 9.86774C1.34724 10.0987 1.41501 10.3265 1.55046 10.5126C1.74129 10.7811 2.02994 10.9289 2.30524 10.9288Z" fill="white"/>
<path d="M1.35663 12.5211C1.51998 12.6327 1.71215 12.6932 1.90918 12.6948C2.16891 12.6948 2.41007 12.5828 2.55027 12.3693C2.61026 12.2758 2.64865 12.1698 2.6626 12.0592C2.67654 11.9486 2.66567 11.8362 2.63079 11.7305C2.56109 11.5103 2.41841 11.3213 2.22692 11.1955C1.80868 10.9139 1.27322 10.982 1.03325 11.3473C0.97328 11.4408 0.934893 11.5468 0.920943 11.6574C0.906993 11.768 0.91784 11.8803 0.952677 11.9861C1.02238 12.2063 1.16506 12.3953 1.35655 12.5211L1.35663 12.5211Z" fill="white"/>
</g>
<defs>
<clipPath id="clip0_99_3919">
<rect width="21.7117" height="22" fill="white" transform="translate(0.449707)"/>
</clipPath>
</defs>
</svg>
