<svg width="34" height="34" viewBox="0 0 34 34" fill="none" xmlns="http://www.w3.org/2000/svg">
<path d="M16.9995 17.5H17C18.2856 17.5 19.5423 17.1188 20.6112 16.4046C21.6801 15.6903 22.5132 14.6752 23.0052 13.4874C23.4972 12.2997 23.6259 10.9928 23.3751 9.73192C23.1243 8.47104 22.5052 7.31285 21.5962 6.40381C20.6872 5.49477 19.529 4.8757 18.2681 4.6249C17.0072 4.37409 15.7003 4.50282 14.5126 4.99479C13.3248 5.48676 12.3097 6.31988 11.5954 7.3888C10.8812 8.45772 10.5 9.71442 10.5 11L10.5 11.0005C10.5017 12.7237 11.187 14.3759 12.4056 15.5944C13.6241 16.813 15.2763 17.4983 16.9995 17.5ZM17 7.5C17.6922 7.5 18.3689 7.70527 18.9445 8.08986C19.5201 8.47444 19.9687 9.02107 20.2336 9.66061C20.4985 10.3002 20.5678 11.0039 20.4327 11.6828C20.2977 12.3618 19.9644 12.9854 19.4749 13.4749C18.9854 13.9644 18.3618 14.2977 17.6828 14.4328C17.0039 14.5678 16.3001 14.4985 15.6606 14.2336C15.0211 13.9687 14.4744 13.5201 14.0899 12.9445C13.7053 12.3689 13.5 11.6922 13.5 11C13.5 10.0717 13.8687 9.18151 14.5251 8.52513C15.1815 7.86875 16.0717 7.5 17 7.5Z" fill="#707070" stroke="white"/>
<path d="M7.5 27.9994V28C7.5 28.3978 7.65803 28.7794 7.93934 29.0607C8.22065 29.342 8.60218 29.5 9 29.5C9.39782 29.5 9.77935 29.342 10.0607 29.0607C10.342 28.7794 10.5 28.3978 10.5 28C10.5 26.2761 11.1848 24.6228 12.4038 23.4038C13.6228 22.1848 15.2761 21.5 17 21.5C18.7239 21.5 20.3772 22.1848 21.5962 23.4038C22.8152 24.6228 23.5 26.2761 23.5 28C23.5 28.3978 23.658 28.7794 23.9393 29.0607C24.2206 29.342 24.6022 29.5 25 29.5C25.3978 29.5 25.7794 29.342 26.0607 29.0607C26.342 28.7794 26.5 28.3978 26.5 28V27.9994C26.4972 25.4809 25.4955 23.0663 23.7146 21.2854C21.9337 19.5045 19.5191 18.5028 17.0006 18.5L17 19L16.9994 18.5C14.4809 18.5028 12.0663 19.5045 10.2854 21.2854C8.50452 23.0663 7.50279 25.4809 7.5 27.9994Z" fill="#707070" stroke="white"/>
</svg>
